<svg xmlns="http://www.w3.org/2000/svg" viewBox="0 0 1592.6 721.69"><g id="Layer_2" data-name="Layer 2"><g id="Layer_1-2" data-name="Layer 1"><path d="M0,0C50.7,11.42,88.26,53.06,93.1,101.67,98.7,158,59.44,212.92,0,227Z" style="fill:#dd3d05"/><path d="M0,233.12a147,147,0,0,0,22.7-7.91,149.13,149.13,0,0,0,24.89-14c14.74-3.89,126.38-31.34,222.92,41.12C342,306,361.42,381.54,366.92,411.18c17.31,93.36-13.89,216.28-116,277.18-110,65.55-228.1,15.13-240.22,9.73,71.48,16,144.31-11.4,182-67.92,49.94-75,23.57-179.48-44.09-228.43C86.15,356.55,11.7,375.42.41,378.47Q.2,305.79,0,233.12Z" style="fill:#dd3d05"/><path d="M.61,389.67c15.59-5.22,45.92-12.94,82-5.61C136,394.9,188.07,435.82,204.91,497.39c17.91,65.44-9.24,134.85-62.66,171.9C79.36,712.94,8.7,691.74,0,689Q.3,539.32.61,389.67Z" style="fill:#939598"/><path d="M549.8,40.4h71.34c51.27,0,76,21.1,76,65.44v11.39c0,38.87-15.22,51.08-29.47,56.24,13.94,5.46,34.42,16.1,34.42,56.09v22.82c0,50.11-22,74.84-77.13,74.84H549.8Zm65.48,112.9c19.58,0,26.32-6,26.32-27.91V110.56c0-18.38-6.21-26.69-24.6-26.69H606.11V153.3Zm-9.17,130.88h11.61c20.71,0,25.61-9.11,25.61-30.37V227.5c0-22.25-5.53-31.74-29.34-31.74h-7.88Z" style="fill:#939598"/><path d="M895,200.54H832.81v78.18h72.93l-7,48.5H774.7V40.4H898.32V89.18H832.81V152H895Z" style="fill:#939598"/><path d="M971.7,40.4H1043c62.17,0,83.62,26.94,83.62,86.31V234.53c0,49.43-11,92.69-79.67,92.69H971.7Zm58.11,242.36h11.31c22.75,0,26.53-14.1,26.53-36.48V117.84c0-21.18-5-32.71-27-32.71h-10.86Z" style="fill:#939598"/><path d="M548.56,394.47h71.35c62.17,0,83.61,26.94,83.61,86.31V588.6c0,49.43-11,92.69-79.67,92.69H548.56Zm58.11,242.36H618c22.74,0,26.52-14.1,26.52-36.48V471.91c0-21.18-5-32.71-27-32.71H606.67Z" style="fill:#939598"/><path d="M801,681.29,766.82,394.47h61.12c4.26,51.29,10.36,148.46,11.83,193.73h2c6.1-56.15,13.33-134.23,19.72-193.73h50c6.21,56,13.11,133.11,18.78,192.79h2.34c2.66-53.5,8.18-145.33,12.12-192.79H1002L963.86,681.29H903.71c-5.91-50.33-13.48-105.8-18.83-165.11h-2c-5.8,58.38-14.86,113.26-21.23,165.11Z" style="fill:#939598"/><path d="M1190.41,554.61h-62.2v78.18h72.92l-7,48.5H1070.1V394.47h123.61v48.78h-65.5v62.86h62.2Z" style="fill:#939598"/><path d="M1267.09,394.47h58.11V633h73L1393,681.29H1267.09Z" style="fill:#939598"/><path d="M1461.54,394.47h58.11V633h72.95l-5.19,48.27H1461.54Z" style="fill:#939598"/></g></g></svg>