<svg id="Layer_1" data-name="Layer 1" xmlns="http://www.w3.org/2000/svg" viewBox="0 0 1024 1024"><rect x="-88.27" y="-62.59" width="1152" height="1152" fill="#2d2d2d"/><path d="M326.3,129.33C377,140.75,414.56,182.39,419.4,231c5.6,56.3-33.66,111.25-93.1,125.29Z" fill="#dd3d05"/><path d="M326.3,362.45A147.22,147.22,0,0,0,349,354.54a149,149,0,0,0,24.89-14c14.74-3.89,126.38-31.34,222.92,41.12,71.47,53.65,90.91,129.21,96.41,158.85,17.31,93.36-13.89,216.28-116,277.18C467.25,883.24,349.12,832.82,337,827.42c71.48,16.05,144.31-11.4,182-67.92,49.94-75,23.57-179.48-44.09-228.43C412.45,485.88,338,504.75,326.71,507.8Q326.5,435.13,326.3,362.45Z" fill="#dd3d05"/><path d="M326.91,519c15.59-5.22,45.92-12.94,82-5.61,53.42,10.84,105.46,51.76,122.3,113.33,17.91,65.44-9.24,134.85-62.66,171.9C405.66,842.27,335,821.07,326.3,818.29Q326.6,668.65,326.91,519Z" fill="#939598"/></svg>