<?xml version="1.0" encoding="utf-8"?>
<!-- Generator: Adobe Illustrator 24.3.0, SVG Export Plug-In . SVG Version: 6.00 Build 0)  -->
<svg version="1.1" id="Layer_1" xmlns="http://www.w3.org/2000/svg" xmlns:xlink="http://www.w3.org/1999/xlink" x="0px" y="0px"
	 viewBox="0 0 1877.9 1024" style="enable-background:new 0 0 1877.9 1024;" xml:space="preserve">
<style type="text/css">
	.st0{fill:#2D2D2D;}
	.st1{fill:#DD3D05;}
	.st2{fill:#939598;}
	.st3{fill:#070707;}
	.st4{font-family:'HavelockTitling-Regular';}
	.st5{font-size:17px;}
</style>
<g>
	<path class="st1" d="M109.6,127.9c50.7,11.4,88.3,53.1,93.1,101.7c5.6,56.3-33.7,111.3-93.1,125.3V127.9z"/>
	<path class="st1" d="M109.6,361c7.8-2,15.4-4.7,22.7-7.9c8.7-3.9,17.1-8.5,24.9-14c14.7-3.9,126.4-31.3,222.9,41.1
		c71.5,53.6,90.9,129.2,96.4,158.8c17.3,93.4-13.9,216.3-116,277.2c-110,65.5-228.1,15.1-240.2,9.7c71.5,16,144.3-11.4,182-67.9
		c49.9-75,23.6-179.5-44.1-228.4c-62.5-45.2-136.9-26.3-148.2-23.3C109.9,457.9,109.8,409.5,109.6,361z"/>
	<path class="st2" d="M110.2,517.6c15.6-5.2,45.9-12.9,82-5.6c53.4,10.8,105.5,51.8,122.3,113.3c17.9,65.4-9.2,134.9-62.7,171.9
		c-62.9,43.7-133.6,22.5-142.3,19.7C109.8,717.1,110,617.4,110.2,517.6z"/>
</g>
<g>
	<text transform="matrix(1 0 0 1 199.0038 887.2144)" class="st3 st4 st5">BEDDWELL.COM</text>
</g>
<g>
	<g>
		<path class="st2" d="M512.4,131.9h79.8c57.4,0,85.1,23.6,85.1,73.2v12.8c0,43.5-17,57.2-33,62.9c15.6,6.1,38.5,18,38.5,62.8v25.5
			c0,56.1-24.6,83.7-86.3,83.7h-84.1V131.9z M585.7,258.2c21.9,0,29.4-6.7,29.4-31.2v-16.6c0-20.6-6.9-29.9-27.5-29.9h-12.2v77.7
			H585.7z M575.4,404.7h13c23.2,0,28.7-10.2,28.7-34v-29.4c0-24.9-6.2-35.5-32.8-35.5h-8.8V404.7z"/>
		<path class="st2" d="M899.7,311.1h-69.6v87.5h81.6l-7.8,54.3H765.1v-321h138.3v54.6h-73.3v70.3h69.6V311.1z"/>
		<path class="st2" d="M986.5,131.9h79.8c69.6,0,93.6,30.1,93.6,96.6v120.7c0,55.3-12.3,103.7-89.2,103.7h-84.3V131.9z
			 M1051.6,403.1h12.7c25.5,0,29.7-15.8,29.7-40.8V218.6c0-23.7-5.6-36.6-30.2-36.6h-12.2V403.1z"/>
	</g>
</g>
<g>
	<g>
		<path class="st2" d="M511,528.1h79.8c69.6,0,93.6,30.1,93.6,96.6v120.7c0,55.3-12.3,103.7-89.2,103.7H511V528.1z M576,799.3h12.7
			c25.5,0,29.7-15.8,29.7-40.8V614.8c0-23.7-5.6-36.6-30.2-36.6H576V799.3z"/>
		<path class="st2" d="M794,849.1l-38.2-321h68.4c4.8,57.4,11.6,166.1,13.2,216.8h2.3c6.8-62.8,14.9-150.2,22.1-216.8h55.9
			c6.9,62.7,14.7,149,21,215.7h2.6c3-59.9,9.2-162.6,13.6-215.7h64.1l-42.7,321h-67.3c-6.6-56.3-15.1-118.4-21.1-184.8h-2.3
			c-6.5,65.3-16.6,126.7-23.8,184.8H794z"/>
		<path class="st2" d="M1229.8,707.3h-69.6v87.5h81.6l-7.8,54.3h-138.8v-321h138.3v54.6h-73.3v70.3h69.6V707.3z"/>
		<path class="st2" d="M1316.6,528.1h65v267h81.6l-5.8,54h-140.9V528.1z"/>
		<path class="st2" d="M1536.2,528.1h65v267h81.6l-5.8,54h-140.9V528.1z"/>
	</g>
</g>
</svg>
